<svg width="600" height="478" viewBox="0 0 600 478" fill="none" xmlns="http://www.w3.org/2000/svg">
<path d="M8.30078 471.953C7.97526 472.116 7.48698 472.197 6.83594 472.197C4.55729 472.197 2.84831 471.302 1.70898 469.512C0.569661 467.721 0 465.931 0 464.141C0 462.676 0.325521 461.374 0.976562 460.234C1.79036 458.932 3.09245 458.118 4.88281 457.793C8.78906 456.816 12.8581 455.27 17.0898 453.154C21.3216 451.038 25.2279 448.678 28.8086 446.074C32.3893 443.307 35.5632 440.378 38.3301 437.285C41.097 434.03 42.9688 430.938 43.9453 428.008C44.2708 426.055 44.515 423.369 44.6777 419.951C44.8405 416.37 44.9219 412.464 44.9219 408.232C44.9219 403.512 44.7591 398.711 44.4336 393.828C44.1081 388.945 43.7012 384.388 43.2129 380.156C42.8874 375.762 42.5618 371.937 42.2363 368.682C41.9108 365.264 41.748 362.741 41.748 361.113C38.8184 361.113 35.8073 361.195 32.7148 361.357C29.6224 361.357 26.7741 361.113 24.1699 360.625C21.5658 360.137 19.3685 359.323 17.5781 358.184C15.9505 357.044 15.1367 355.254 15.1367 352.812C15.1367 351.185 15.7878 349.72 17.0898 348.418C18.5547 347.116 20.5078 346.465 22.9492 346.465C26.2044 346.79 29.2155 347.035 31.9824 347.197C34.9121 347.36 37.679 347.441 40.2832 347.441C44.0267 347.441 48.1771 347.035 52.7344 346.221C57.4544 345.407 62.6628 345 68.3594 345C70.3125 345 71.9401 345.651 73.2422 346.953C74.5443 348.092 75.1953 349.476 75.1953 351.104C75.1953 357.288 68.6849 360.381 55.6641 360.381C56.6406 367.054 57.5358 375.029 58.3496 384.307C59.3262 393.584 59.8145 402.861 59.8145 412.139C59.8145 416.696 59.6517 420.928 59.3262 424.834C59.0007 428.74 58.1868 432.484 56.8848 436.064C55.7454 439.482 53.9551 442.819 51.5137 446.074C49.0723 449.329 45.7357 452.666 41.5039 456.084C36.6211 459.99 31.25 463.408 25.3906 466.338C19.694 469.105 13.9974 470.977 8.30078 471.953Z" fill="black"/>
<path d="M166.914 464.629C166.589 462.513 165.612 458.037 163.984 451.201C162.52 444.202 160.566 436.309 158.125 427.52C155.846 427.845 153.568 428.008 151.289 428.008C149.01 428.008 146.65 428.008 144.209 428.008C140.954 428.008 137.536 428.008 133.955 428.008C130.374 427.845 127.119 427.52 124.189 427.031C121.26 426.38 118.818 425.485 116.865 424.346C114.912 423.044 113.936 421.253 113.936 418.975C113.936 417.184 114.668 415.719 116.133 414.58C117.76 413.441 120.039 412.871 122.969 412.871C129.479 413.848 135.99 414.336 142.5 414.336C144.453 414.336 146.406 414.336 148.359 414.336C150.312 414.336 152.266 414.173 154.219 413.848C152.266 407.174 150.231 400.664 148.115 394.316C145.999 387.806 143.883 382.028 141.768 376.982C139.814 371.937 137.943 367.868 136.152 364.775C134.362 361.683 132.734 360.137 131.27 360.137C128.503 360.137 125.573 362.66 122.48 367.705C119.388 372.751 116.296 379.098 113.203 386.748C110.111 394.398 107.181 402.78 104.414 411.895C101.647 420.846 99.1243 429.31 96.8457 437.285C94.7298 445.26 93.0208 452.096 91.7188 457.793C90.4167 463.327 89.7656 466.582 89.7656 467.559C89.4401 469.186 88.6263 470.407 87.3242 471.221C86.1849 472.035 84.9642 472.441 83.6621 472.441C81.709 472.441 79.9186 471.79 78.291 470.488C76.6634 469.186 75.8496 467.396 75.8496 465.117C80.4069 442.656 85.6152 422.637 91.4746 405.059C93.916 397.572 96.6016 390.247 99.5312 383.086C102.461 375.762 105.635 369.333 109.053 363.799C112.471 358.102 116.051 353.545 119.795 350.127C123.701 346.709 127.689 345 131.758 345C135.99 345 139.977 347.604 143.721 352.812C147.627 358.021 151.289 364.694 154.707 372.832C158.125 380.807 161.217 389.596 163.984 399.199C166.751 408.639 169.193 417.673 171.309 426.299C173.424 434.762 175.133 442.249 176.436 448.76C177.738 455.107 178.633 459.095 179.121 460.723V462.188C179.121 464.792 178.307 466.908 176.68 468.535C175.215 470 173.587 470.732 171.797 470.732C170.495 470.732 169.355 470.326 168.379 469.512C167.565 468.535 167.077 466.908 166.914 464.629Z" fill="black"/>
<path d="M264.492 356.23C264.329 355.742 264.248 355.01 264.248 354.033C264.248 351.755 264.899 349.883 266.201 348.418C267.503 346.953 269.049 346.221 270.84 346.221C272.63 346.221 274.339 346.79 275.967 347.93C277.594 349.069 278.652 351.022 279.141 353.789C280.28 360.625 281.094 367.705 281.582 375.029C282.07 382.354 282.314 389.922 282.314 397.734C282.314 410.43 281.663 423.206 280.361 436.064C279.059 448.76 277.188 460.397 274.746 470.977C274.258 473.255 273.363 474.883 272.061 475.859C270.921 476.836 269.619 477.324 268.154 477.324C266.364 477.324 264.492 476.429 262.539 474.639C260.586 473.011 257.819 469.349 254.238 463.652C250.658 457.956 245.856 449.655 239.834 438.75C233.975 427.845 226.325 413.115 216.885 394.561C213.467 387.725 210.863 382.598 209.072 379.18C207.282 375.762 206.468 373.402 206.631 372.1C206.631 370.309 207.363 368.682 208.828 367.217C210.293 365.589 211.921 364.775 213.711 364.775C215.013 364.775 215.99 364.938 216.641 365.264C217.454 365.426 218.187 366.159 218.838 367.461C219.652 368.6 220.628 370.472 221.768 373.076C222.907 375.518 224.697 378.936 227.139 383.33L253.75 433.867C256.029 437.936 257.982 441.354 259.609 444.121C261.237 446.888 262.539 449.004 263.516 450.469C266.445 432.891 267.91 415.882 267.91 399.443C267.91 391.468 267.585 383.9 266.934 376.738C266.283 369.414 265.469 362.578 264.492 356.23ZM203.457 354.766C202.643 361.113 202.074 369.007 201.748 378.447C201.423 387.725 201.26 397.327 201.26 407.256C201.26 417.673 201.585 427.845 202.236 437.773C203.05 447.539 203.457 456.084 203.457 463.408C203.457 466.501 202.725 468.942 201.26 470.732C199.795 472.36 198.005 473.174 195.889 473.174C194.587 473.174 193.285 472.604 191.982 471.465C190.843 470.163 190.111 468.21 189.785 465.605C188.646 456.328 187.832 445.911 187.344 434.355C187.018 422.799 186.855 411.162 186.855 399.443C186.855 390.817 186.937 382.598 187.1 374.785C187.425 366.81 187.995 359.486 188.809 352.812C188.971 349.883 189.867 347.848 191.494 346.709C193.285 345.57 195.075 345 196.865 345C198.656 345.326 200.202 346.221 201.504 347.686C202.806 348.988 203.457 350.859 203.457 353.301V354.766Z" fill="black"/>
<path d="M309.336 437.773C308.197 438.587 307.383 438.994 306.895 438.994C307.057 443.877 307.301 448.434 307.627 452.666C308.115 456.898 308.359 460.804 308.359 464.385C308.359 467.64 307.627 470 306.162 471.465C304.86 472.93 303.314 473.662 301.523 473.662C300.059 473.662 298.675 473.011 297.373 471.709C296.234 470.407 295.501 468.372 295.176 465.605C294.036 456.328 293.223 445.911 292.734 434.355C292.409 422.799 292.246 411.162 292.246 399.443C292.246 390.817 292.409 382.598 292.734 374.785C293.06 366.81 293.548 359.486 294.199 352.812C294.688 348.092 296.803 345.732 300.547 345.732C302.5 345.732 304.29 346.546 305.918 348.174C307.546 349.801 308.359 351.999 308.359 354.766V356.23C307.546 362.415 306.976 369.984 306.65 378.936C306.488 387.725 306.406 397.002 306.406 406.768V421.416C310.312 417.184 314.544 411.895 319.102 405.547C323.659 399.199 328.053 392.689 332.285 386.016C336.517 379.342 340.342 372.913 343.76 366.729C347.178 360.544 349.701 355.417 351.328 351.348C352.142 349.557 353.118 348.255 354.258 347.441C355.56 346.628 356.862 346.221 358.164 346.221C359.629 346.221 360.931 346.79 362.07 347.93C363.372 349.069 364.023 350.778 364.023 353.057C364.023 354.196 363.128 356.719 361.338 360.625C359.71 364.368 357.432 368.926 354.502 374.297C351.572 379.668 348.236 385.527 344.492 391.875C340.749 398.06 336.842 404.082 332.773 409.941C328.704 415.801 324.635 421.253 320.566 426.299C316.497 431.182 312.754 435.007 309.336 437.773ZM367.93 466.582C362.07 462.513 356.292 457.956 350.596 452.91C345.062 447.865 339.609 442.168 334.238 435.82C332.285 433.704 331.309 431.589 331.309 429.473C331.309 427.682 331.96 426.217 333.262 425.078C334.727 423.776 336.354 423.125 338.145 423.125C339.447 423.125 340.993 423.939 342.783 425.566C344.574 427.031 346.364 428.822 348.154 430.938C350.107 432.891 351.979 435.007 353.77 437.285C355.56 439.401 357.106 441.029 358.408 442.168C359.548 443.145 361.257 444.447 363.535 446.074C365.814 447.702 368.092 449.492 370.371 451.445C372.812 453.236 374.928 455.026 376.719 456.816C378.509 458.607 379.404 460.153 379.404 461.455C379.404 463.245 378.753 464.873 377.451 466.338C376.149 467.64 374.603 468.291 372.812 468.291C371.185 468.291 369.557 467.721 367.93 466.582Z" fill="black"/>
<path d="M388.848 360.625C386.243 360.137 384.29 359.242 382.988 357.939C381.686 356.475 381.035 355.01 381.035 353.545C381.035 351.755 381.768 350.127 383.232 348.662C384.697 347.197 386.895 346.465 389.824 346.465C393.242 346.79 396.742 347.035 400.322 347.197C403.903 347.36 407.484 347.441 411.064 347.441C417.249 347.441 423.19 347.279 428.887 346.953C434.746 346.628 440.117 346.139 445 345.488C447.767 345.488 449.883 346.221 451.348 347.686C452.975 348.988 453.789 350.534 453.789 352.324C453.789 356.882 449.964 359.648 442.314 360.625C434.827 361.602 422.865 362.09 406.426 362.09C405.124 369.414 404.147 377.145 403.496 385.283C402.845 393.258 402.52 401.803 402.52 410.918C402.52 416.777 402.601 422.393 402.764 427.764C402.926 433.135 403.171 438.424 403.496 443.633C403.822 446.888 404.391 449.492 405.205 451.445C406.182 453.236 407.484 454.619 409.111 455.596C410.902 456.41 413.099 456.898 415.703 457.061C418.47 457.223 421.888 457.305 425.957 457.305C431.165 457.305 436.292 456.979 441.338 456.328C446.546 455.514 451.51 454.212 456.23 452.422C457.695 451.934 459.079 451.689 460.381 451.689C462.497 451.689 463.962 452.259 464.775 453.398C465.752 454.538 466.24 455.84 466.24 457.305C466.24 460.397 464.775 462.92 461.846 464.873C458.916 466.826 455.417 468.372 451.348 469.512C447.441 470.651 443.291 471.383 438.896 471.709C434.502 472.197 430.84 472.441 427.91 472.441C424.818 472.441 421.318 472.36 417.412 472.197C413.669 472.197 409.925 471.709 406.182 470.732C402.601 469.593 399.346 467.803 396.416 465.361C393.486 462.92 391.452 459.421 390.312 454.863C389.173 450.632 388.359 445.423 387.871 439.238C387.383 432.891 387.139 426.136 387.139 418.975C387.139 413.115 387.22 407.337 387.383 401.641C387.708 395.781 388.034 390.247 388.359 385.039C388.685 379.831 389.092 375.192 389.58 371.123C390.068 366.891 390.475 363.555 390.801 361.113C389.987 361.113 389.499 361.032 389.336 360.869C389.336 360.706 389.173 360.625 388.848 360.625ZM418.633 418.242C416.029 418.079 414.238 417.266 413.262 415.801C412.448 414.336 412.041 412.708 412.041 410.918C412.041 409.29 412.692 407.826 413.994 406.523C415.459 405.221 417.331 404.57 419.609 404.57C422.376 404.57 425.143 404.652 427.91 404.814C430.84 404.977 433.688 405.059 436.455 405.059C445.407 405.059 454.277 404.57 463.066 403.594C465.671 403.757 467.624 404.489 468.926 405.791C470.391 407.093 471.204 408.477 471.367 409.941C471.367 412.383 470.146 414.255 467.705 415.557C465.264 416.696 462.334 417.591 458.916 418.242C455.498 418.893 451.917 419.3 448.174 419.463C444.43 419.463 441.175 419.463 438.408 419.463C434.99 419.463 431.654 419.382 428.398 419.219C425.143 418.893 421.888 418.568 418.633 418.242Z" fill="black"/>
<path d="M555.273 356.23C555.111 355.742 555.029 355.01 555.029 354.033C555.029 351.755 555.68 349.883 556.982 348.418C558.285 346.953 559.831 346.221 561.621 346.221C563.411 346.221 565.12 346.79 566.748 347.93C568.376 349.069 569.434 351.022 569.922 353.789C571.061 360.625 571.875 367.705 572.363 375.029C572.852 382.354 573.096 389.922 573.096 397.734C573.096 410.43 572.445 423.206 571.143 436.064C569.84 448.76 567.969 460.397 565.527 470.977C565.039 473.255 564.144 474.883 562.842 475.859C561.702 476.836 560.4 477.324 558.936 477.324C557.145 477.324 555.273 476.429 553.32 474.639C551.367 473.011 548.6 469.349 545.02 463.652C541.439 457.956 536.637 449.655 530.615 438.75C524.756 427.845 517.106 413.115 507.666 394.561C504.248 387.725 501.644 382.598 499.854 379.18C498.063 375.762 497.249 373.402 497.412 372.1C497.412 370.309 498.145 368.682 499.609 367.217C501.074 365.589 502.702 364.775 504.492 364.775C505.794 364.775 506.771 364.938 507.422 365.264C508.236 365.426 508.968 366.159 509.619 367.461C510.433 368.6 511.41 370.472 512.549 373.076C513.688 375.518 515.479 378.936 517.92 383.33L544.531 433.867C546.81 437.936 548.763 441.354 550.391 444.121C552.018 446.888 553.32 449.004 554.297 450.469C557.227 432.891 558.691 415.882 558.691 399.443C558.691 391.468 558.366 383.9 557.715 376.738C557.064 369.414 556.25 362.578 555.273 356.23ZM494.238 354.766C493.424 361.113 492.855 369.007 492.529 378.447C492.204 387.725 492.041 397.327 492.041 407.256C492.041 417.673 492.367 427.845 493.018 437.773C493.831 447.539 494.238 456.084 494.238 463.408C494.238 466.501 493.506 468.942 492.041 470.732C490.576 472.36 488.786 473.174 486.67 473.174C485.368 473.174 484.066 472.604 482.764 471.465C481.624 470.163 480.892 468.21 480.566 465.605C479.427 456.328 478.613 445.911 478.125 434.355C477.799 422.799 477.637 411.162 477.637 399.443C477.637 390.817 477.718 382.598 477.881 374.785C478.206 366.81 478.776 359.486 479.59 352.812C479.753 349.883 480.648 347.848 482.275 346.709C484.066 345.57 485.856 345 487.646 345C489.437 345.326 490.983 346.221 492.285 347.686C493.587 348.988 494.238 350.859 494.238 353.301V354.766Z" fill="black"/>
<path d="M591.869 361.943L591.861 361.932L591.853 361.922C591.661 361.701 591.426 361.376 591.148 360.943C590.869 360.509 590.582 360.044 590.287 359.547C590.009 359.052 589.746 358.557 589.498 358.063C589.31 357.662 589.154 357.308 589.028 357.001C590.075 356.453 590.851 355.908 591.336 355.361L591.336 355.361L591.338 355.358C591.846 354.768 592.125 354.166 592.125 353.555C592.125 353.029 591.997 352.569 591.727 352.191C591.468 351.828 591.124 351.537 590.701 351.317C590.281 351.099 589.793 350.951 589.24 350.87C588.711 350.79 588.16 350.75 587.586 350.75C587.173 350.75 586.738 350.766 586.28 350.797L586.279 350.798C585.848 350.828 585.394 350.867 584.918 350.913C584.812 350.868 584.701 350.844 584.586 350.844C584.336 350.844 584.125 350.95 583.971 351.146C583.812 351.331 583.75 351.576 583.75 351.844C583.75 352.01 583.8 352.221 583.88 352.461C584.012 352.873 584.111 353.437 584.173 354.162C584.235 354.888 584.266 355.678 584.266 356.531C584.266 357.556 584.227 358.581 584.149 359.606C584.072 360.625 583.98 361.511 583.872 362.266C583.851 362.342 583.844 362.426 583.844 362.508C583.844 362.784 583.936 363.03 584.151 363.197L584.151 363.198L584.161 363.205C584.355 363.34 584.568 363.414 584.797 363.414C585.014 363.414 585.214 363.337 585.391 363.201C585.609 363.046 585.731 362.818 585.77 362.546C585.818 362.26 585.865 361.897 585.912 361.461C585.976 361.016 586.023 360.526 586.054 359.991C586.086 359.458 586.109 358.894 586.125 358.299C586.156 357.702 586.172 357.105 586.172 356.508C586.172 355.706 586.14 354.949 586.077 354.238C586.038 353.642 585.97 353.108 585.873 352.638C586.174 352.595 586.455 352.562 586.717 352.538C587.071 352.507 587.399 352.492 587.703 352.492C588.445 352.492 589.039 352.606 589.495 352.82L589.495 352.82L589.504 352.824C589.732 352.921 589.884 353.039 589.98 353.169C590.074 353.297 590.125 353.453 590.125 353.648C590.125 353.731 590.104 353.829 590.053 353.945L590.048 353.956L590.044 353.968C590.013 354.061 589.938 354.186 589.796 354.343C589.66 354.478 589.446 354.636 589.145 354.817L589.145 354.817L589.14 354.82C588.854 355 588.474 355.206 587.995 355.438C587.597 355.621 587.294 355.856 587.148 356.168L587.148 356.168L587.143 356.181C587.044 356.429 586.984 356.658 586.984 356.859C586.984 357.005 587.003 357.146 587.041 357.28L587.047 357.302L587.058 357.323L587.058 357.323L587.058 357.324L587.058 357.324L587.059 357.325L587.059 357.325L587.059 357.326L587.06 357.327L587.06 357.327L587.06 357.328L587.06 357.328L587.061 357.329L587.061 357.329L587.061 357.33L587.061 357.33L587.062 357.331L587.062 357.331L587.062 357.332L587.063 357.333L587.063 357.333L587.063 357.334L587.063 357.334L587.064 357.335L587.064 357.335L587.064 357.336L587.064 357.336L587.065 357.337L587.065 357.337L587.065 357.338L587.066 357.339L587.066 357.339L587.066 357.34L587.066 357.34L587.067 357.341L587.067 357.341L587.067 357.342L587.067 357.342L587.068 357.343L587.068 357.343L587.068 357.344L587.068 357.344L587.069 357.345L587.069 357.345L587.069 357.346L587.07 357.347L587.07 357.347L587.07 357.348L587.07 357.348L587.071 357.349L587.071 357.349L587.071 357.35L587.071 357.35L587.072 357.351L587.072 357.351L587.072 357.352L587.072 357.352L587.073 357.353L587.073 357.353L587.073 357.354L587.074 357.355L587.074 357.355L587.074 357.356L587.074 357.356L587.075 357.357L587.075 357.357L587.075 357.358L587.075 357.358L587.076 357.359L587.076 357.359L587.076 357.36L587.076 357.36L587.077 357.361L587.077 357.361L587.077 357.362L587.077 357.362L587.078 357.363L587.078 357.363L587.078 357.364L587.079 357.364L587.079 357.365L587.079 357.366L587.079 357.366L587.08 357.367L587.08 357.367L587.08 357.368L587.08 357.368L587.081 357.369L587.081 357.369L587.081 357.37L587.081 357.37L587.082 357.371L587.082 357.371L587.082 357.372L587.082 357.372L587.083 357.373L587.083 357.373L587.083 357.374L587.083 357.374L587.084 357.375L587.084 357.375L587.084 357.376L587.084 357.376L587.085 357.377L587.085 357.377L587.085 357.378L587.085 357.378L587.086 357.379L587.086 357.379L587.086 357.38L587.087 357.38L587.087 357.381L587.087 357.382L587.087 357.382L587.088 357.383L587.088 357.383L587.088 357.384L587.088 357.384L587.089 357.385L587.089 357.385L587.089 357.386L587.089 357.386L587.09 357.387L587.09 357.387L587.09 357.388L587.09 357.388L587.091 357.389L587.091 357.389L587.091 357.39L587.091 357.39L587.092 357.391L587.092 357.391L587.092 357.392L587.092 357.392L587.093 357.393L587.093 357.393L587.093 357.394L587.093 357.394L587.094 357.395L587.094 357.395L587.094 357.396L587.094 357.396L587.095 357.397L587.095 357.397L587.095 357.398L587.095 357.398L587.096 357.399L587.096 357.399L587.096 357.4L587.096 357.4L587.097 357.401L587.097 357.401L587.097 357.402L587.097 357.402L587.098 357.403L587.098 357.403L587.098 357.404L587.098 357.404L587.099 357.405L587.099 357.405L587.099 357.406L587.099 357.406L587.1 357.407L587.1 357.407L587.1 357.408L587.1 357.408L587.101 357.409L587.101 357.409L587.101 357.409L587.101 357.41L587.102 357.41L587.102 357.411L587.102 357.411L587.102 357.412L587.102 357.412L587.103 357.413L587.103 357.413L587.103 357.414L587.103 357.414L587.104 357.415L587.104 357.415L587.104 357.416L587.104 357.416L587.105 357.417L587.105 357.417L587.105 357.418L587.105 357.418L587.106 357.419L587.106 357.419L587.106 357.42L587.106 357.42L587.107 357.421L587.107 357.421L587.107 357.422L587.107 357.422L587.108 357.423L587.108 357.423L587.108 357.424L587.108 357.424L587.109 357.424L587.109 357.425L587.109 357.425L587.109 357.426L587.109 357.426L587.11 357.427L587.11 357.427L587.11 357.428L587.11 357.428L587.111 357.429L587.111 357.429L587.111 357.43L587.111 357.43L587.112 357.431L587.112 357.431L587.112 357.432L587.112 357.432L587.113 357.433L587.113 357.433L587.113 357.434L587.113 357.434L587.114 357.434L587.114 357.435L587.114 357.435L587.114 357.436L587.114 357.436L587.115 357.437L587.115 357.437L587.115 357.438L587.115 357.438L587.116 357.439L587.116 357.439L587.116 357.44L587.116 357.44L587.117 357.441L587.117 357.441L587.117 357.441L587.117 357.442L587.117 357.442L587.118 357.443L587.118 357.443L587.118 357.444L587.118 357.444L587.119 357.445L587.119 357.445L587.119 357.446L587.119 357.446L587.12 357.447L587.12 357.447L587.12 357.448L587.12 357.448L587.12 357.448L587.121 357.449L587.121 357.449L587.121 357.45L587.121 357.45L587.122 357.451L587.122 357.451L587.122 357.452L587.122 357.452L587.123 357.453L587.123 357.453L587.123 357.453L587.123 357.454L587.123 357.454L587.124 357.455L587.124 357.455L587.124 357.456L587.124 357.456L587.125 357.457L587.125 357.457L587.125 357.458L587.125 357.458L587.126 357.458L587.126 357.459L587.126 357.459L587.126 357.46L587.126 357.46L587.127 357.461L587.127 357.461L587.127 357.462L587.127 357.462L587.128 357.463L587.128 357.463L587.128 357.463L587.128 357.464L587.128 357.464L587.129 357.465L587.129 357.465L587.129 357.466L587.129 357.466L587.13 357.467L587.13 357.467L587.13 357.467L587.13 357.468L587.13 357.468L587.131 357.469L587.131 357.469L587.131 357.47L587.131 357.47L587.132 357.471L587.132 357.471L587.132 357.471L587.132 357.472L587.132 357.472L587.133 357.473L587.133 357.473L587.133 357.474L587.133 357.474L587.134 357.475L587.134 357.475L587.134 357.475L587.134 357.476L587.134 357.476L587.135 357.477L587.135 357.477L587.135 357.478L587.135 357.478L587.136 357.478L587.136 357.479L587.136 357.479L587.136 357.48L587.136 357.48L587.137 357.481L587.137 357.481L587.137 357.482L587.137 357.482L587.137 357.482L587.138 357.483L587.138 357.483L587.138 357.484L587.138 357.484L587.139 357.485L587.139 357.485L587.139 357.485L587.139 357.486L587.139 357.486L587.14 357.487L587.14 357.487L587.14 357.488L587.14 357.488L587.14 357.488L587.141 357.489L587.141 357.489L587.141 357.49L587.141 357.49L587.142 357.491L587.142 357.491L587.142 357.491L587.142 357.492L587.142 357.492L587.143 357.493L587.143 357.493L587.143 357.494L587.143 357.494L587.143 357.494L587.144 357.495L587.144 357.495L587.144 357.496L587.144 357.496L587.145 357.496L587.145 357.497L587.145 357.497L587.145 357.498L587.145 357.498L587.146 357.499L587.146 357.499L587.146 357.499L587.146 357.5L587.146 357.5L587.147 357.501L587.147 357.501L587.147 357.502L587.147 357.502L587.147 357.502L587.148 357.503L587.148 357.503L587.148 357.504L587.148 357.504L587.148 357.504L587.149 357.505L587.149 357.505L587.149 357.506L587.149 357.506L587.15 357.506L587.15 357.507L587.15 357.507L587.15 357.508L587.15 357.508L587.151 357.509L587.151 357.509L587.151 357.509L587.151 357.51L587.151 357.51L587.152 357.511L587.152 357.511L587.152 357.511L587.152 357.512L587.152 357.512L587.153 357.513L587.153 357.513L587.153 357.513L587.153 357.514L587.153 357.514L587.154 357.515L587.154 357.515L587.154 357.515L587.154 357.516L587.154 357.516L587.155 357.517L587.155 357.517L587.155 357.517L587.155 357.518L587.155 357.518L587.156 357.519L587.156 357.519L587.156 357.52L587.156 357.52L587.156 357.52L587.157 357.521L587.157 357.521L587.157 357.522L587.157 357.522L587.157 357.522L587.158 357.523L587.158 357.523L587.158 357.524L587.158 357.524L587.158 357.524L587.159 357.525L587.159 357.525L587.159 357.525L587.159 357.526L587.159 357.526L587.16 357.527L587.16 357.527L587.16 357.527L587.16 357.528L587.16 357.528L587.161 357.529L587.161 357.529L587.161 357.529L587.161 357.53L587.161 357.53L587.162 357.531L587.162 357.531L587.162 357.531L587.162 357.532L587.162 357.532L587.163 357.533L587.163 357.533L587.163 357.533L587.163 357.534L587.163 357.534L587.164 357.534L587.164 357.535L587.164 357.535L587.164 357.536L587.164 357.536L587.164 357.536L587.165 357.537L587.165 357.537L587.165 357.538L587.165 357.538L587.165 357.538L587.166 357.539L587.166 357.539L587.166 357.54L587.166 357.54L587.166 357.54L587.167 357.541L587.167 357.541L587.167 357.541L587.167 357.542L587.167 357.542L587.168 357.543L587.168 357.543L587.168 357.543L587.168 357.544L587.168 357.544L587.169 357.544L587.169 357.545L587.169 357.545L587.169 357.545C587.36 358.052 587.62 358.642 587.947 359.313L587.947 359.313L587.948 359.315C588.279 359.976 588.625 360.614 588.988 361.229C589.351 361.844 589.701 362.369 590.037 362.802C590.208 363.021 590.373 363.198 590.533 363.321C590.69 363.442 590.866 363.531 591.055 363.531C591.322 363.531 591.561 363.436 591.761 363.256C591.968 363.07 592.078 362.831 592.078 362.555C592.078 362.337 592.001 362.131 591.869 361.943Z" fill="black" stroke="black" stroke-width="0.5"/>
<path d="M598.5 357.5C598.5 363.575 593.575 368.5 587.5 368.5C581.425 368.5 576.5 363.575 576.5 357.5C576.5 351.425 581.425 346.5 587.5 346.5C593.575 346.5 598.5 351.425 598.5 357.5Z" stroke="black" stroke-width="3"/>
<path d="M285.287 328.597L299.787 274.597C299.787 274.597 301.06 263.097 298.787 258.097C293.787 247.097 296.787 233.597 296.787 233.597L313.287 172.597M393.131 183.294L406.297 132.642C408.152 125.504 403.87 118.214 396.732 116.358C389.595 114.503 382.305 118.785 380.449 125.923L367.283 176.575M420.023 202.751L448.295 175.437C453.572 170.339 453.718 161.929 448.619 156.652C443.521 151.375 435.111 151.23 429.834 156.328L401.562 183.641M365.787 336.597L379.787 284.097L423.287 237.597C428.729 232.325 428.687 222.903 424.787 217.097L408.287 192.097C408.287 192.097 402.287 184.595 392.287 188.596C382.787 193.097 385.111 203.598 386.287 206.098C390.287 214.598 395.287 225.097 395.287 225.097C375.787 222.039 366.985 225.767 355.787 235.597M321.653 193.816C314.538 192.023 310.223 184.802 312.016 177.687L316.42 160.206C318.213 153.091 325.434 148.777 332.549 150.569C339.664 152.362 343.978 159.583 342.186 166.698L337.781 184.179C335.989 191.294 328.768 195.608 321.653 193.816ZM346.639 204.11C339.524 202.318 335.209 195.096 337.002 187.981L344.643 157.655C346.435 150.54 353.657 146.226 360.772 148.019C367.887 149.811 372.201 157.032 370.408 164.147L362.768 194.473C360.975 201.588 353.754 205.903 346.639 204.11Z" stroke="black" stroke-width="12" stroke-linecap="round" stroke-linejoin="round"/>
<path d="M234.769 202.001C234.769 205.314 237.455 208.001 240.769 208.001C244.082 208.001 246.769 205.314 246.769 202.001H234.769ZM240.769 177H246.769C246.769 176.02 246.529 175.056 246.07 174.19L240.769 177ZM205.768 111.002L200.351 113.582L200.407 113.7L200.469 113.817L205.768 111.002ZM225.769 93.4999L221.05 97.2064L221.05 97.2065L225.769 93.4999ZM241.269 116L236.227 119.253C237.369 121.023 239.356 122.065 241.462 121.997L241.269 116ZM270.902 139.183C272.384 142.146 275.988 143.348 278.952 141.866C281.916 140.384 283.117 136.78 281.635 133.816L270.902 139.183ZM247.768 85C247.768 88.3137 250.454 91 253.768 91C257.081 91 259.768 88.3137 259.768 85H247.768ZM221.768 93.5C221.768 96.8137 224.454 99.5 227.768 99.5C231.081 99.5 233.768 96.8137 233.768 93.5H221.768ZM227.768 35.4149L221.768 35.4149V35.4149H227.768ZM280.768 22.5976L274.768 22.5884V22.5976H280.768ZM274.768 72.5C274.768 75.8137 277.454 78.5 280.768 78.5C284.081 78.5 286.768 75.8137 286.768 72.5H274.768ZM247.768 71.9959C247.768 75.3096 250.454 77.9959 253.768 77.9959C257.081 77.9959 259.768 75.3096 259.768 71.9959H247.768ZM253.768 22.5976L247.768 22.5884V22.5976H253.768ZM307.768 35.5976L313.768 35.5976L313.768 35.5976L307.768 35.5976ZM301.768 85.5C301.768 88.8137 304.454 91.5 307.768 91.5C311.081 91.5 313.768 88.8137 313.768 85.5H301.768ZM274.768 84.9959C274.768 88.3096 277.454 90.9959 280.768 90.9959C284.081 90.9959 286.768 88.3096 286.768 84.9959H274.768ZM280.768 35.5976L286.768 35.5976L286.768 35.5976L280.768 35.5976ZM333.768 62.5L327.768 62.5V62.5H333.768ZM327.768 149.5C327.768 152.814 330.454 155.5 333.768 155.5C337.081 155.5 339.768 152.814 339.768 149.5H327.768ZM301.768 81C301.768 84.3137 304.454 87 307.768 87C311.081 87 313.768 84.3137 313.768 81H301.768ZM246.769 202.001V177H234.769V202.001H246.769ZM240.769 177C246.07 174.19 246.07 174.19 246.07 174.189C246.069 174.189 246.069 174.188 246.069 174.188C246.068 174.186 246.067 174.184 246.065 174.181C246.062 174.175 246.057 174.166 246.051 174.154C246.038 174.13 246.019 174.094 245.994 174.046C245.943 173.951 245.868 173.81 245.77 173.625C245.574 173.254 245.285 172.71 244.915 172.01C244.173 170.612 243.105 168.597 241.796 166.128C239.179 161.191 235.601 154.441 231.757 147.191C224.069 132.693 215.318 116.191 211.067 108.187L200.469 113.817C204.718 121.816 213.467 138.313 221.155 152.813C224.999 160.062 228.577 166.811 231.194 171.748C232.503 174.217 233.571 176.232 234.312 177.631C234.683 178.33 234.972 178.875 235.168 179.245C235.266 179.43 235.341 179.571 235.391 179.666C235.416 179.714 235.435 179.75 235.448 179.774C235.454 179.786 235.459 179.795 235.463 179.801C235.464 179.804 235.465 179.806 235.466 179.808C235.467 179.809 235.467 179.809 235.467 179.809C235.467 179.81 235.467 179.81 240.769 177ZM211.185 108.423C209.095 104.032 209.092 101.228 209.498 99.6569C209.885 98.1644 210.815 97.0746 212.215 96.3285C213.704 95.5347 215.631 95.2087 217.452 95.4636C219.291 95.7209 220.476 96.4758 221.05 97.2064L230.487 89.7934C227.56 86.068 223.246 84.1574 219.115 83.5794C214.967 82.9989 210.457 83.6676 206.571 85.7383C202.596 87.8565 199.214 91.5006 197.881 96.6512C196.569 101.723 197.441 107.471 200.351 113.582L211.185 108.423ZM221.05 97.2065C223.644 100.508 227.405 105.96 230.599 110.719C232.177 113.07 233.586 115.207 234.601 116.756C235.108 117.531 235.516 118.157 235.797 118.589C235.937 118.805 236.045 118.972 236.118 119.084C236.155 119.141 236.182 119.183 236.2 119.212C236.21 119.226 236.216 119.236 236.221 119.243C236.223 119.247 236.225 119.249 236.226 119.251C236.226 119.252 236.227 119.252 236.227 119.253C236.227 119.253 236.227 119.253 236.227 119.253C236.227 119.253 236.227 119.253 241.269 116C246.31 112.747 246.31 112.747 246.31 112.747C246.31 112.746 246.31 112.746 246.31 112.746C246.309 112.745 246.309 112.744 246.308 112.743C246.307 112.741 246.305 112.738 246.302 112.734C246.297 112.726 246.289 112.714 246.279 112.699C246.259 112.668 246.23 112.623 246.192 112.564C246.116 112.446 246.004 112.273 245.86 112.052C245.572 111.609 245.156 110.969 244.639 110.181C243.607 108.605 242.173 106.43 240.563 104.032C237.382 99.2912 233.393 93.4923 230.487 89.7933L221.05 97.2065ZM241.462 121.997C254.536 121.575 265.911 129.201 270.902 139.183L281.635 133.816C274.626 119.798 259.001 109.425 241.075 110.003L241.462 121.997ZM247.768 35.4149V85H259.768V35.4149H247.768ZM233.768 93.5V35.4149H221.768V93.5H233.768ZM227.768 35.4149C233.768 35.4149 233.768 35.4179 233.768 35.4209C233.768 35.4219 233.768 35.4248 233.768 35.4267C233.768 35.4305 233.768 35.4341 233.768 35.4375C233.768 35.4444 233.768 35.4506 233.768 35.4562C233.767 35.4674 233.767 35.476 233.767 35.4822C233.767 35.4946 233.767 35.4972 233.767 35.4908C233.768 35.4777 233.769 35.4295 233.775 35.3513C233.787 35.1928 233.814 34.9249 233.873 34.5866C233.996 33.883 234.232 33.0299 234.644 32.2446C235.04 31.4885 235.557 30.8723 236.259 30.4257C236.938 29.9944 238.135 29.5 240.268 29.5V17.5C236.15 17.5 232.66 18.495 229.823 20.2977C227.01 22.0852 225.183 24.4477 224.017 26.6703C222.866 28.8637 222.32 30.9894 222.053 32.5198C221.917 33.2985 221.846 33.9615 221.809 34.4546C221.79 34.7021 221.78 34.9099 221.774 35.0714C221.772 35.1522 221.77 35.2218 221.769 35.2792C221.768 35.3079 221.768 35.3337 221.768 35.3563C221.768 35.3676 221.768 35.3782 221.768 35.3879C221.768 35.3928 221.768 35.3975 221.768 35.402C221.768 35.4043 221.768 35.4075 221.768 35.4086C221.768 35.4118 221.768 35.4149 227.768 35.4149ZM240.268 29.5C244.818 29.5 246.218 31.2829 246.86 32.4149C247.292 33.1775 247.535 33.9977 247.661 34.6666C247.722 34.9888 247.749 35.2417 247.761 35.3869C247.767 35.4585 247.768 35.5004 247.769 35.5075C247.769 35.511 247.769 35.5055 247.768 35.4903C247.768 35.4828 247.768 35.4727 247.768 35.4602C247.768 35.4539 247.768 35.447 247.768 35.4395C247.768 35.4357 247.768 35.4318 247.768 35.4277C247.768 35.4256 247.768 35.4224 247.768 35.4214C247.768 35.4182 247.768 35.4149 253.768 35.4149C259.768 35.4149 259.768 35.4115 259.768 35.4081C259.768 35.4069 259.768 35.4034 259.768 35.401C259.768 35.3962 259.768 35.3912 259.768 35.386C259.768 35.3755 259.768 35.3643 259.767 35.3523C259.767 35.3283 259.767 35.3012 259.766 35.2711C259.765 35.2109 259.763 35.1384 259.76 35.0546C259.754 34.8872 259.742 34.6732 259.722 34.4189C259.681 33.9126 259.603 33.2346 259.453 32.4398C259.157 30.8746 258.556 28.7161 257.301 26.5C254.567 21.6745 249.217 17.5 240.268 17.5V29.5ZM274.768 22.5976V72.5H286.768V22.5976H274.768ZM259.768 71.9959V22.5976H247.768V71.9959H259.768ZM253.768 22.5976C259.768 22.6067 259.768 22.6097 259.768 22.6126C259.768 22.6135 259.768 22.6164 259.768 22.6183C259.768 22.6219 259.768 22.6254 259.768 22.6288C259.768 22.6354 259.768 22.6414 259.768 22.6467C259.767 22.6572 259.767 22.6651 259.767 22.6703C259.767 22.6807 259.767 22.6808 259.767 22.6712C259.768 22.6518 259.77 22.5948 259.777 22.5058C259.791 22.3256 259.821 22.0276 259.885 21.6535C260.02 20.8779 260.277 19.9309 260.73 19.0532C261.17 18.2025 261.744 17.5072 262.517 17.0074C263.261 16.5264 264.536 16 266.768 16V4C262.509 4 258.913 5.0483 256.003 6.92931C253.122 8.79159 251.257 11.2456 250.07 13.5444C248.896 15.8161 248.336 18.0185 248.062 19.6049C247.922 20.4118 247.849 21.098 247.811 21.6068C247.792 21.8622 247.781 22.0758 247.775 22.241C247.772 22.3237 247.77 22.3945 247.769 22.4526C247.769 22.4816 247.768 22.5075 247.768 22.5302C247.768 22.5415 247.768 22.5521 247.768 22.5618C247.768 22.5666 247.768 22.5713 247.768 22.5757C247.768 22.5779 247.768 22.5811 247.768 22.5822C247.768 22.5853 247.768 22.5884 253.768 22.5976ZM266.768 16C269.346 16 270.875 16.5691 271.784 17.1142C272.702 17.6644 273.325 18.3935 273.779 19.21C274.251 20.0616 274.514 20.9737 274.651 21.7147C274.717 22.0726 274.746 22.3556 274.759 22.5226C274.766 22.6051 274.768 22.6558 274.768 22.6694C274.769 22.676 274.768 22.6731 274.768 22.6599C274.768 22.6533 274.768 22.6441 274.768 22.6323C274.768 22.6263 274.768 22.6197 274.768 22.6124C274.768 22.6087 274.768 22.6049 274.768 22.6009C274.768 22.5989 274.768 22.5958 274.768 22.5948C274.768 22.5916 274.768 22.5884 280.768 22.5976C286.768 22.6067 286.768 22.6034 286.768 22.6C286.768 22.5989 286.768 22.5954 286.768 22.5931C286.768 22.5883 286.768 22.5833 286.768 22.5781C286.768 22.5678 286.768 22.5566 286.768 22.5446C286.767 22.5206 286.767 22.4933 286.767 22.4629C286.766 22.402 286.764 22.3284 286.761 22.2428C286.755 22.0718 286.743 21.8519 286.723 21.5899C286.682 21.068 286.604 20.3668 286.453 19.5437C286.154 17.9226 285.546 15.6854 284.271 13.3876C282.977 11.0547 280.977 8.6344 277.955 6.82252C274.925 5.00561 271.199 4 266.768 4V16ZM301.768 35.5976V85.5H313.768V35.5976H301.768ZM286.768 84.9959V35.5976H274.768V84.9959H286.768ZM280.768 35.5976C286.768 35.5976 286.768 35.6007 286.768 35.6037C286.768 35.6047 286.768 35.6077 286.768 35.6096C286.768 35.6135 286.768 35.6172 286.768 35.6207C286.768 35.6278 286.768 35.6341 286.768 35.6399C286.767 35.6514 286.767 35.6603 286.767 35.6667C286.767 35.6795 286.767 35.6824 286.767 35.6762C286.768 35.6635 286.769 35.6151 286.776 35.5363C286.788 35.3765 286.816 35.1058 286.877 34.7636C287.004 34.0527 287.248 33.1865 287.677 32.3853C288.09 31.6158 288.639 30.9659 289.41 30.4867C290.164 30.0186 291.47 29.5 293.748 29.5V17.5C289.536 17.5 285.975 18.4936 283.078 20.2938C280.198 22.0829 278.313 24.4574 277.103 26.7122C275.91 28.9354 275.343 31.0936 275.064 32.6511C274.923 33.443 274.849 34.1174 274.811 34.6192C274.791 34.8712 274.781 35.0827 274.775 35.2472C274.772 35.3296 274.77 35.4005 274.769 35.459C274.769 35.4883 274.768 35.5146 274.768 35.5377C274.768 35.5493 274.768 35.56 274.768 35.57C274.768 35.575 274.768 35.5798 274.768 35.5844C274.768 35.5867 274.768 35.59 274.768 35.5911C274.768 35.5944 274.768 35.5976 280.768 35.5976ZM293.748 29.5C298.625 29.5 300.148 31.3905 300.824 32.5569C301.275 33.3363 301.527 34.1699 301.658 34.8451C301.721 35.1711 301.749 35.4265 301.761 35.5727C301.767 35.6447 301.769 35.6867 301.769 35.6933C301.769 35.6965 301.769 35.6906 301.768 35.675C301.768 35.6671 301.768 35.6568 301.768 35.644C301.768 35.6375 301.768 35.6305 301.768 35.6227C301.768 35.6189 301.768 35.6148 301.768 35.6106C301.768 35.6085 301.768 35.6053 301.768 35.6042C301.768 35.6009 301.768 35.5976 307.768 35.5976C313.768 35.5976 313.768 35.5941 313.768 35.5906C313.768 35.5894 313.768 35.5858 313.768 35.5834C313.768 35.5784 313.768 35.5733 313.768 35.568C313.768 35.5573 313.768 35.5459 313.767 35.5336C313.767 35.5091 313.767 35.4815 313.766 35.4507C313.765 35.3893 313.763 35.3155 313.76 35.2301C313.753 35.0595 313.741 34.8416 313.72 34.5828C313.677 34.0674 313.596 33.3777 313.44 32.5695C313.132 30.9764 312.508 28.7857 311.207 26.5407C308.378 21.6583 302.891 17.5 293.748 17.5V29.5ZM327.768 62.5V149.5H339.768V62.5H327.768ZM313.768 81V62.5H301.768V81H313.768ZM307.768 62.5C313.768 62.5 313.768 62.5029 313.768 62.5057C313.768 62.5066 313.768 62.5094 313.768 62.5112C313.768 62.5148 313.768 62.5181 313.768 62.5213C313.768 62.5278 313.768 62.5335 313.768 62.5386C313.768 62.5487 313.767 62.5561 313.767 62.5609C313.767 62.5705 313.767 62.5698 313.767 62.5595C313.768 62.5387 313.77 62.4805 313.777 62.3904C313.79 62.2081 313.819 61.9085 313.881 61.5333C314.011 60.7543 314.26 59.8075 314.697 58.9333C315.122 58.0826 315.666 57.4144 316.369 56.9454C317.035 56.5015 318.193 56 320.268 56V44C316.093 44 312.563 45.061 309.713 46.9608C306.901 48.8356 305.101 51.2924 303.964 53.5667C302.838 55.8175 302.305 57.9957 302.045 59.5605C301.912 60.3571 301.843 61.0341 301.807 61.5354C301.789 61.7871 301.78 61.9974 301.774 62.1597C301.771 62.241 301.77 62.3105 301.769 62.3674C301.768 62.3958 301.768 62.4212 301.768 62.4433C301.768 62.4544 301.768 62.4647 301.768 62.4741C301.768 62.4788 301.768 62.4833 301.768 62.4877C301.768 62.4898 301.768 62.4929 301.768 62.494C301.768 62.497 301.768 62.5 307.768 62.5ZM320.268 56C322.683 56 324.092 56.5473 324.921 57.0587C325.766 57.5802 326.359 58.2836 326.801 59.1009C327.26 59.9504 327.517 60.8641 327.652 61.6098C327.716 61.9696 327.746 62.2547 327.759 62.4244C327.766 62.5081 327.768 62.5603 327.768 62.5755C327.769 62.583 327.768 62.5809 327.768 62.5686C327.768 62.5625 327.768 62.5538 327.768 62.5424C327.768 62.5367 327.768 62.5303 327.768 62.5232C327.768 62.5197 327.768 62.516 327.768 62.5121C327.768 62.5102 327.768 62.5072 327.768 62.5062C327.768 62.5031 327.768 62.5 333.768 62.5C339.768 62.5 339.768 62.4968 339.768 62.4935C339.768 62.4924 339.768 62.489 339.768 62.4867C339.768 62.4821 339.768 62.4773 339.768 62.4722C339.768 62.4621 339.768 62.4512 339.767 62.4395C339.767 62.4161 339.767 62.3894 339.766 62.3596C339.765 62.3001 339.764 62.2278 339.761 62.1438C339.754 61.9758 339.743 61.7594 339.724 61.5014C339.684 60.9874 339.608 60.2961 339.462 59.484C339.174 57.8859 338.588 55.6746 337.36 53.3991C336.113 51.0914 334.176 48.6698 331.224 46.8475C328.256 45.0152 324.602 44 320.268 44V56Z" fill="black"/>
<path d="M194.288 332.499C194.288 332.499 191.788 325.499 181.788 321.999C171.788 318.499 165.288 307.499 165.288 307.499L133.788 252.999M198.494 205.769L187.643 186.459C184.087 180.13 176.074 177.883 169.746 181.439C163.418 184.995 161.171 193.008 164.726 199.336L186.323 237.77C189.937 244.201 198.081 246.486 204.513 242.872C210.796 239.341 213.111 231.394 209.788 224.999M226.023 200.485L213.672 178.505C210.101 172.15 202.055 169.893 195.701 173.464C189.383 177.014 187.11 184.993 190.607 191.339L199.787 207.999M256.788 220.001C256.288 205.499 244.288 204.999 231.788 201.999C215.626 198.12 203.387 194.499 200.287 210.001C198.788 220.999 207.344 223.518 213.288 225.499C220.787 227.999 228.288 231.499 228.288 231.499C228.288 231.499 216.288 239.999 212.288 247.999C208.288 255.999 207.789 266.998 207.789 266.998M257.716 250.999L257.715 253.881M259.288 283.999L286.788 332.499M153.494 261.142C147.165 264.697 139.153 262.45 135.597 256.122L126.726 240.336C123.171 234.008 125.418 225.995 131.746 222.439C138.074 218.883 146.087 221.13 149.643 227.459L158.513 243.245C162.069 249.573 159.822 257.586 153.494 261.142ZM178.07 250.846C171.742 254.402 163.729 252.154 160.174 245.826L144.726 218.336C141.171 212.008 143.418 203.995 149.746 200.439C156.074 196.883 164.087 199.13 167.643 205.459L183.09 232.949C186.646 239.277 184.399 247.29 178.07 250.846Z" stroke="black" stroke-width="12" stroke-linecap="round" stroke-linejoin="round"/>
<path d="M173.966 66C155.866 72.7855 146.694 92.9591 153.479 111.059M170.546 39C134.346 52.571 116.002 92.9182 129.573 129.118" stroke="black" stroke-width="12" stroke-linecap="round"/>
<path d="M353.545 36.5391C369.561 36.6532 382.452 49.7292 382.337 65.745M347.457 10.0078C382.802 10.2598 411.251 39.1171 410.999 74.4624" stroke="black" stroke-width="12" stroke-linecap="round"/>
</svg>
