<svg width="600" height="478" viewBox="0 0 600 478" fill="none" xmlns="http://www.w3.org/2000/svg">
<path d="M8.30078 471.953C7.97526 472.116 7.48698 472.197 6.83594 472.197C4.55729 472.197 2.84831 471.302 1.70898 469.512C0.569661 467.721 0 465.931 0 464.141C0 462.676 0.325521 461.374 0.976562 460.234C1.79036 458.932 3.09245 458.118 4.88281 457.793C8.78906 456.816 12.8581 455.27 17.0898 453.154C21.3216 451.038 25.2279 448.678 28.8086 446.074C32.3893 443.307 35.5632 440.378 38.3301 437.285C41.097 434.03 42.9688 430.938 43.9453 428.008C44.2708 426.055 44.515 423.369 44.6777 419.951C44.8405 416.37 44.9219 412.464 44.9219 408.232C44.9219 403.512 44.7591 398.711 44.4336 393.828C44.1081 388.945 43.7012 384.388 43.2129 380.156C42.8874 375.762 42.5618 371.937 42.2363 368.682C41.9108 365.264 41.748 362.741 41.748 361.113C38.8184 361.113 35.8073 361.195 32.7148 361.357C29.6224 361.357 26.7741 361.113 24.1699 360.625C21.5658 360.137 19.3685 359.323 17.5781 358.184C15.9505 357.044 15.1367 355.254 15.1367 352.812C15.1367 351.185 15.7878 349.72 17.0898 348.418C18.5547 347.116 20.5078 346.465 22.9492 346.465C26.2044 346.79 29.2155 347.035 31.9824 347.197C34.9121 347.36 37.679 347.441 40.2832 347.441C44.0267 347.441 48.1771 347.035 52.7344 346.221C57.4544 345.407 62.6628 345 68.3594 345C70.3125 345 71.9401 345.651 73.2422 346.953C74.5443 348.092 75.1953 349.476 75.1953 351.104C75.1953 357.288 68.6849 360.381 55.6641 360.381C56.6406 367.054 57.5358 375.029 58.3496 384.307C59.3262 393.584 59.8145 402.861 59.8145 412.139C59.8145 416.696 59.6517 420.928 59.3262 424.834C59.0007 428.74 58.1868 432.484 56.8848 436.064C55.7454 439.482 53.9551 442.819 51.5137 446.074C49.0723 449.329 45.7357 452.666 41.5039 456.084C36.6211 459.99 31.25 463.408 25.3906 466.338C19.694 469.105 13.9974 470.977 8.30078 471.953Z" fill="black"/>
<path d="M166.914 464.629C166.589 462.513 165.612 458.037 163.984 451.201C162.52 444.202 160.566 436.309 158.125 427.52C155.846 427.845 153.568 428.008 151.289 428.008C149.01 428.008 146.65 428.008 144.209 428.008C140.954 428.008 137.536 428.008 133.955 428.008C130.374 427.845 127.119 427.52 124.189 427.031C121.26 426.38 118.818 425.485 116.865 424.346C114.912 423.044 113.936 421.253 113.936 418.975C113.936 417.184 114.668 415.719 116.133 414.58C117.76 413.441 120.039 412.871 122.969 412.871C129.479 413.848 135.99 414.336 142.5 414.336C144.453 414.336 146.406 414.336 148.359 414.336C150.312 414.336 152.266 414.173 154.219 413.848C152.266 407.174 150.231 400.664 148.115 394.316C145.999 387.806 143.883 382.028 141.768 376.982C139.814 371.937 137.943 367.868 136.152 364.775C134.362 361.683 132.734 360.137 131.27 360.137C128.503 360.137 125.573 362.66 122.48 367.705C119.388 372.751 116.296 379.098 113.203 386.748C110.111 394.398 107.181 402.78 104.414 411.895C101.647 420.846 99.1243 429.31 96.8457 437.285C94.7298 445.26 93.0208 452.096 91.7188 457.793C90.4167 463.327 89.7656 466.582 89.7656 467.559C89.4401 469.186 88.6263 470.407 87.3242 471.221C86.1849 472.035 84.9642 472.441 83.6621 472.441C81.709 472.441 79.9186 471.79 78.291 470.488C76.6634 469.186 75.8496 467.396 75.8496 465.117C80.4069 442.656 85.6152 422.637 91.4746 405.059C93.916 397.572 96.6016 390.247 99.5312 383.086C102.461 375.762 105.635 369.333 109.053 363.799C112.471 358.102 116.051 353.545 119.795 350.127C123.701 346.709 127.689 345 131.758 345C135.99 345 139.977 347.604 143.721 352.812C147.627 358.021 151.289 364.694 154.707 372.832C158.125 380.807 161.217 389.596 163.984 399.199C166.751 408.639 169.193 417.673 171.309 426.299C173.424 434.762 175.133 442.249 176.436 448.76C177.738 455.107 178.633 459.095 179.121 460.723V462.188C179.121 464.792 178.307 466.908 176.68 468.535C175.215 470 173.587 470.732 171.797 470.732C170.495 470.732 169.355 470.326 168.379 469.512C167.565 468.535 167.077 466.908 166.914 464.629Z" fill="black"/>
<path d="M264.492 356.23C264.329 355.742 264.248 355.01 264.248 354.033C264.248 351.755 264.899 349.883 266.201 348.418C267.503 346.953 269.049 346.221 270.84 346.221C272.63 346.221 274.339 346.79 275.967 347.93C277.594 349.069 278.652 351.022 279.141 353.789C280.28 360.625 281.094 367.705 281.582 375.029C282.07 382.354 282.314 389.922 282.314 397.734C282.314 410.43 281.663 423.206 280.361 436.064C279.059 448.76 277.188 460.397 274.746 470.977C274.258 473.255 273.363 474.883 272.061 475.859C270.921 476.836 269.619 477.324 268.154 477.324C266.364 477.324 264.492 476.429 262.539 474.639C260.586 473.011 257.819 469.349 254.238 463.652C250.658 457.956 245.856 449.655 239.834 438.75C233.975 427.845 226.325 413.115 216.885 394.561C213.467 387.725 210.863 382.598 209.072 379.18C207.282 375.762 206.468 373.402 206.631 372.1C206.631 370.309 207.363 368.682 208.828 367.217C210.293 365.589 211.921 364.775 213.711 364.775C215.013 364.775 215.99 364.938 216.641 365.264C217.454 365.426 218.187 366.159 218.838 367.461C219.652 368.6 220.628 370.472 221.768 373.076C222.907 375.518 224.697 378.936 227.139 383.33L253.75 433.867C256.029 437.936 257.982 441.354 259.609 444.121C261.237 446.888 262.539 449.004 263.516 450.469C266.445 432.891 267.91 415.882 267.91 399.443C267.91 391.468 267.585 383.9 266.934 376.738C266.283 369.414 265.469 362.578 264.492 356.23ZM203.457 354.766C202.643 361.113 202.074 369.007 201.748 378.447C201.423 387.725 201.26 397.327 201.26 407.256C201.26 417.673 201.585 427.845 202.236 437.773C203.05 447.539 203.457 456.084 203.457 463.408C203.457 466.501 202.725 468.942 201.26 470.732C199.795 472.36 198.005 473.174 195.889 473.174C194.587 473.174 193.285 472.604 191.982 471.465C190.843 470.163 190.111 468.21 189.785 465.605C188.646 456.328 187.832 445.911 187.344 434.355C187.018 422.799 186.855 411.162 186.855 399.443C186.855 390.817 186.937 382.598 187.1 374.785C187.425 366.81 187.995 359.486 188.809 352.812C188.971 349.883 189.867 347.848 191.494 346.709C193.285 345.57 195.075 345 196.865 345C198.656 345.326 200.202 346.221 201.504 347.686C202.806 348.988 203.457 350.859 203.457 353.301V354.766Z" fill="black"/>
<path d="M309.336 437.773C308.197 438.587 307.383 438.994 306.895 438.994C307.057 443.877 307.301 448.434 307.627 452.666C308.115 456.898 308.359 460.804 308.359 464.385C308.359 467.64 307.627 470 306.162 471.465C304.86 472.93 303.314 473.662 301.523 473.662C300.059 473.662 298.675 473.011 297.373 471.709C296.234 470.407 295.501 468.372 295.176 465.605C294.036 456.328 293.223 445.911 292.734 434.355C292.409 422.799 292.246 411.162 292.246 399.443C292.246 390.817 292.409 382.598 292.734 374.785C293.06 366.81 293.548 359.486 294.199 352.812C294.688 348.092 296.803 345.732 300.547 345.732C302.5 345.732 304.29 346.546 305.918 348.174C307.546 349.801 308.359 351.999 308.359 354.766V356.23C307.546 362.415 306.976 369.984 306.65 378.936C306.488 387.725 306.406 397.002 306.406 406.768V421.416C310.312 417.184 314.544 411.895 319.102 405.547C323.659 399.199 328.053 392.689 332.285 386.016C336.517 379.342 340.342 372.913 343.76 366.729C347.178 360.544 349.701 355.417 351.328 351.348C352.142 349.557 353.118 348.255 354.258 347.441C355.56 346.628 356.862 346.221 358.164 346.221C359.629 346.221 360.931 346.79 362.07 347.93C363.372 349.069 364.023 350.778 364.023 353.057C364.023 354.196 363.128 356.719 361.338 360.625C359.71 364.368 357.432 368.926 354.502 374.297C351.572 379.668 348.236 385.527 344.492 391.875C340.749 398.06 336.842 404.082 332.773 409.941C328.704 415.801 324.635 421.253 320.566 426.299C316.497 431.182 312.754 435.007 309.336 437.773ZM367.93 466.582C362.07 462.513 356.292 457.956 350.596 452.91C345.062 447.865 339.609 442.168 334.238 435.82C332.285 433.704 331.309 431.589 331.309 429.473C331.309 427.682 331.96 426.217 333.262 425.078C334.727 423.776 336.354 423.125 338.145 423.125C339.447 423.125 340.993 423.939 342.783 425.566C344.574 427.031 346.364 428.822 348.154 430.938C350.107 432.891 351.979 435.007 353.77 437.285C355.56 439.401 357.106 441.029 358.408 442.168C359.548 443.145 361.257 444.447 363.535 446.074C365.814 447.702 368.092 449.492 370.371 451.445C372.812 453.236 374.928 455.026 376.719 456.816C378.509 458.607 379.404 460.153 379.404 461.455C379.404 463.245 378.753 464.873 377.451 466.338C376.149 467.64 374.603 468.291 372.812 468.291C371.185 468.291 369.557 467.721 367.93 466.582Z" fill="black"/>
<path d="M388.848 360.625C386.243 360.137 384.29 359.242 382.988 357.939C381.686 356.475 381.035 355.01 381.035 353.545C381.035 351.755 381.768 350.127 383.232 348.662C384.697 347.197 386.895 346.465 389.824 346.465C393.242 346.79 396.742 347.035 400.322 347.197C403.903 347.36 407.484 347.441 411.064 347.441C417.249 347.441 423.19 347.279 428.887 346.953C434.746 346.628 440.117 346.139 445 345.488C447.767 345.488 449.883 346.221 451.348 347.686C452.975 348.988 453.789 350.534 453.789 352.324C453.789 356.882 449.964 359.648 442.314 360.625C434.827 361.602 422.865 362.09 406.426 362.09C405.124 369.414 404.147 377.145 403.496 385.283C402.845 393.258 402.52 401.803 402.52 410.918C402.52 416.777 402.601 422.393 402.764 427.764C402.926 433.135 403.171 438.424 403.496 443.633C403.822 446.888 404.391 449.492 405.205 451.445C406.182 453.236 407.484 454.619 409.111 455.596C410.902 456.41 413.099 456.898 415.703 457.061C418.47 457.223 421.888 457.305 425.957 457.305C431.165 457.305 436.292 456.979 441.338 456.328C446.546 455.514 451.51 454.212 456.23 452.422C457.695 451.934 459.079 451.689 460.381 451.689C462.497 451.689 463.962 452.259 464.775 453.398C465.752 454.538 466.24 455.84 466.24 457.305C466.24 460.397 464.775 462.92 461.846 464.873C458.916 466.826 455.417 468.372 451.348 469.512C447.441 470.651 443.291 471.383 438.896 471.709C434.502 472.197 430.84 472.441 427.91 472.441C424.818 472.441 421.318 472.36 417.412 472.197C413.669 472.197 409.925 471.709 406.182 470.732C402.601 469.593 399.346 467.803 396.416 465.361C393.486 462.92 391.452 459.421 390.312 454.863C389.173 450.632 388.359 445.423 387.871 439.238C387.383 432.891 387.139 426.136 387.139 418.975C387.139 413.115 387.22 407.337 387.383 401.641C387.708 395.781 388.034 390.247 388.359 385.039C388.685 379.831 389.092 375.192 389.58 371.123C390.068 366.891 390.475 363.555 390.801 361.113C389.987 361.113 389.499 361.032 389.336 360.869C389.336 360.706 389.173 360.625 388.848 360.625ZM418.633 418.242C416.029 418.079 414.238 417.266 413.262 415.801C412.448 414.336 412.041 412.708 412.041 410.918C412.041 409.29 412.692 407.826 413.994 406.523C415.459 405.221 417.331 404.57 419.609 404.57C422.376 404.57 425.143 404.652 427.91 404.814C430.84 404.977 433.688 405.059 436.455 405.059C445.407 405.059 454.277 404.57 463.066 403.594C465.671 403.757 467.624 404.489 468.926 405.791C470.391 407.093 471.204 408.477 471.367 409.941C471.367 412.383 470.146 414.255 467.705 415.557C465.264 416.696 462.334 417.591 458.916 418.242C455.498 418.893 451.917 419.3 448.174 419.463C444.43 419.463 441.175 419.463 438.408 419.463C434.99 419.463 431.654 419.382 428.398 419.219C425.143 418.893 421.888 418.568 418.633 418.242Z" fill="black"/>
<path d="M555.273 356.23C555.111 355.742 555.029 355.01 555.029 354.033C555.029 351.755 555.68 349.883 556.982 348.418C558.285 346.953 559.831 346.221 561.621 346.221C563.411 346.221 565.12 346.79 566.748 347.93C568.376 349.069 569.434 351.022 569.922 353.789C571.061 360.625 571.875 367.705 572.363 375.029C572.852 382.354 573.096 389.922 573.096 397.734C573.096 410.43 572.445 423.206 571.143 436.064C569.84 448.76 567.969 460.397 565.527 470.977C565.039 473.255 564.144 474.883 562.842 475.859C561.702 476.836 560.4 477.324 558.936 477.324C557.145 477.324 555.273 476.429 553.32 474.639C551.367 473.011 548.6 469.349 545.02 463.652C541.439 457.956 536.637 449.655 530.615 438.75C524.756 427.845 517.106 413.115 507.666 394.561C504.248 387.725 501.644 382.598 499.854 379.18C498.063 375.762 497.249 373.402 497.412 372.1C497.412 370.309 498.145 368.682 499.609 367.217C501.074 365.589 502.702 364.775 504.492 364.775C505.794 364.775 506.771 364.938 507.422 365.264C508.236 365.426 508.968 366.159 509.619 367.461C510.433 368.6 511.41 370.472 512.549 373.076C513.688 375.518 515.479 378.936 517.92 383.33L544.531 433.867C546.81 437.936 548.763 441.354 550.391 444.121C552.018 446.888 553.32 449.004 554.297 450.469C557.227 432.891 558.691 415.882 558.691 399.443C558.691 391.468 558.366 383.9 557.715 376.738C557.064 369.414 556.25 362.578 555.273 356.23ZM494.238 354.766C493.424 361.113 492.855 369.007 492.529 378.447C492.204 387.725 492.041 397.327 492.041 407.256C492.041 417.673 492.367 427.845 493.018 437.773C493.831 447.539 494.238 456.084 494.238 463.408C494.238 466.501 493.506 468.942 492.041 470.732C490.576 472.36 488.786 473.174 486.67 473.174C485.368 473.174 484.066 472.604 482.764 471.465C481.624 470.163 480.892 468.21 480.566 465.605C479.427 456.328 478.613 445.911 478.125 434.355C477.799 422.799 477.637 411.162 477.637 399.443C477.637 390.817 477.718 382.598 477.881 374.785C478.206 366.81 478.776 359.486 479.59 352.812C479.753 349.883 480.648 347.848 482.275 346.709C484.066 345.57 485.856 345 487.646 345C489.437 345.326 490.983 346.221 492.285 347.686C493.587 348.988 494.238 350.859 494.238 353.301V354.766Z" fill="black"/>
<path d="M278.152 335.912C269.427 320.751 260.814 305.943 252.271 291.094C249.483 286.247 250.129 282.27 253.807 280.272C257.501 278.265 261.26 279.829 263.974 284.548C269.189 293.615 274.385 302.694 280.171 312.782C282.995 302.396 285.563 293.016 288.088 283.624C289.038 280.09 289.924 276.537 290.773 272.977C292.275 266.676 292.201 260.638 289.4 254.482C285.296 245.463 287.188 236.128 289.549 227.05C295.453 204.356 301.562 181.716 307.625 159.063C310.561 148.095 314.779 144.031 326.265 141.122C326.344 139.761 326.501 138.302 326.502 136.842C326.518 112.177 326.514 87.5119 326.513 62.8468C326.513 62.0136 326.544 61.1771 326.483 60.3479C326.148 55.8124 323.613 53.0651 319.825 53.0997C316.062 53.1341 313.335 55.9827 313.241 60.4124C313.104 66.9092 313.237 73.4111 313.185 79.9103C313.141 85.2912 310.844 88.0852 306.605 88.0913C302.362 88.0974 300.052 85.3135 300.037 79.9252C299.999 65.7596 300.024 51.5937 300.023 37.428C300.023 36.2614 300.082 35.0908 300.006 33.929C299.739 29.7872 298.03 26.8558 293.439 26.6672C289.259 26.4955 286.749 29.1296 286.714 34.1373C286.614 48.469 286.677 62.8019 286.671 77.1343C286.67 78.6338 286.735 80.1425 286.597 81.6309C286.243 85.4519 284.264 87.8734 280.285 88.042C276.033 88.222 273.893 85.727 273.272 81.7763C273.067 80.4733 273.201 79.115 273.201 77.782C273.198 59.1165 273.182 40.451 273.214 21.7856C273.219 18.4703 272.918 15.3863 269.344 13.8896C264.332 11.7909 260.135 15.0672 260.115 21.2845C260.056 39.9498 260.094 58.6154 260.092 77.2809C260.091 84.9688 258.271 87.9767 253.564 88.0873C248.606 88.2038 246.695 85.1596 246.692 77.1184C246.688 63.1193 246.687 49.1202 246.69 35.121C246.691 31.6303 246.245 28.3405 242.354 26.9844C237.458 25.2782 233.519 28.4892 233.439 34.4836C233.31 44.148 233.402 53.8153 233.401 63.4813C233.401 67.8144 234.008 72.2519 233.284 76.4603C231.354 87.6715 236.961 95.9489 243.227 104.024C244.069 105.108 245.917 105.695 247.398 105.958C261.599 108.488 272.798 115.553 280.603 127.756C283.396 132.123 282.779 136.022 279.194 138.183C275.73 140.271 272.209 139.281 269.488 135.104C262.811 124.853 253.403 119.683 241.235 118.78C238.829 118.602 235.916 116.73 234.396 114.75C230.05 109.084 226.329 102.942 222.308 97.0236C219.399 92.7432 215.513 91.3382 212.271 93.2796C208.909 95.2929 208.366 99.0105 210.919 103.868C221.989 124.927 233.196 145.914 244.098 167.059C245.698 170.162 246.267 173.931 246.69 177.467C247.122 181.082 246.904 184.793 246.76 188.454C246.489 195.39 245.951 201.749 254.037 205.881C259.278 208.56 261.07 214.959 261.222 221.073C261.325 225.202 259.142 227.819 255.023 228.087C251.185 228.337 248.524 226.233 248.135 222.352C247.532 216.341 244.044 213.766 238.482 212.707C230.307 211.151 222.202 209.227 214.061 207.489C208.97 206.402 205.105 207.997 204.329 211.801C203.368 216.51 206.379 218.877 210.229 220.36C215.972 222.574 221.908 224.346 227.482 226.913C229.547 227.863 231.9 230.397 232.153 232.451C232.408 234.522 230.811 237.789 229.003 238.985C218.45 245.961 213.001 255.602 212.316 268.117C212.08 272.442 209.869 274.983 205.401 274.965C201.446 274.948 198.933 272.167 199.167 267.554C199.402 262.935 200.247 258.346 200.787 254.035C196.748 253.364 192.472 252.578 188.168 252.01C187.412 251.91 186.269 252.512 185.755 253.152C179.867 260.464 172.256 262.373 164.777 260.641C159.418 264.896 154.848 268.525 149.631 272.667C150.938 274.946 152.842 278.324 154.801 281.671C159.588 289.852 164.316 298.07 169.23 306.175C172.678 311.863 177.697 315.511 183.689 318.65C188.921 321.39 193.32 326.031 197.473 330.414C200.311 333.409 199.299 337.019 196.005 339.52C192.774 341.974 189.351 341.348 187.161 338.345C183.555 333.398 178.714 330.633 173.303 328.219C165.857 324.897 161.004 318.603 157.014 311.824C144.107 289.897 131.24 267.943 118.735 245.786C111.988 233.83 118.281 220.157 131.501 216.71C132.299 216.501 133.082 216.234 133.825 216.009C135.41 201.873 140.086 196.632 153.378 193.985C155.81 180.643 166.598 171.155 181.496 176.509C186.571 173.46 190.724 169.851 195.539 168.317C204.022 165.613 212.564 169.609 217.385 177.434C220.7 182.816 223.606 188.453 226.993 193.787C228.155 195.618 230.222 196.875 232.583 197.95C232.565 187.203 235.173 176.96 229.257 166.785C218.978 149.104 210.664 130.269 200.167 112.731C190.373 96.3688 199.084 77.2126 220.108 78.9107C220.108 63.7481 220.028 48.6177 220.136 33.4885C220.211 22.9508 227.057 14.99 237.4 13.4856C240.619 13.0175 243.963 13.4127 247.643 13.4127C250.805 5.2652 257.013 0.0390308 266.572 0.00021985C276.132 -0.0385942 282.432 5.0639 285.814 13.7751C307.068 13.1359 311.239 17.1525 313.522 40.4061C317.266 40.4061 321.182 39.7234 324.756 40.5387C334.137 42.6787 339.862 50.5865 339.886 60.8337C339.946 87.4984 339.889 114.163 339.879 140.828C339.878 142.306 339.879 143.784 339.879 146.215C348.257 138.153 357.171 136.499 367.234 141.917C369.197 134.801 370.856 128.042 372.937 121.416C375.895 112.002 384.023 106.406 393.282 107.023C402.565 107.642 410.038 114.331 411.685 123.88C412.095 126.26 411.939 128.91 411.347 131.26C408.199 143.752 404.83 156.188 401.223 169.831C403.304 168.422 404.816 167.688 405.957 166.575C411.562 161.111 417.014 155.491 422.62 150.029C431.028 141.836 443.467 141.669 451.267 149.547C459.257 157.615 459.196 169.624 450.891 178.195C443.485 185.838 436.023 193.442 428.259 200.714C425.133 203.643 424.453 205.743 427.244 209.305C431.594 214.857 434.319 221.372 432.158 228.398C430.792 232.838 428.367 237.334 425.285 240.798C413.106 254.486 400.352 267.662 388.121 281.305C385.485 284.246 383.428 288.133 382.32 291.938C378.276 305.83 374.904 319.917 370.882 333.816C370.146 336.36 368.01 339.33 365.72 340.419C361.123 342.604 356.355 337.519 357.752 332.062C361.298 318.203 365.431 304.486 368.639 290.554C370.545 282.28 374.444 275.724 380.316 269.696C392.169 257.528 403.521 244.872 415.081 232.419C420.42 226.669 420.707 223.637 416.412 216.951C411.913 209.949 407.408 202.951 402.812 196.013C400.032 191.815 396.373 190.484 393.17 192.525C389.326 194.975 389.423 198.518 391.067 202.2C393.576 207.82 396.513 213.274 398.63 219.032C399.485 221.356 399.673 225.188 398.327 226.725C396.797 228.474 393.065 229.38 390.545 228.993C378.788 227.187 368.41 229.479 359.434 237.538C355.768 240.828 351.93 240.893 349.274 238.048C346.309 234.87 346.675 231.186 350.587 227.575C359.253 219.578 369.647 215.607 381.978 214.787C380.809 212.147 379.698 209.808 378.726 207.412C375.301 198.975 376.078 191.195 382.216 184.125C383.459 182.693 384.421 180.81 384.925 178.974C389.326 162.935 393.615 146.865 397.888 130.791C399.317 125.416 397.727 121.761 393.635 120.623C389.601 119.501 386.625 121.771 385.097 127.424C379.283 148.944 373.55 170.487 367.749 192.011C364.048 205.744 351.776 212.552 339.932 206.948C335.454 204.829 332.093 200.084 327.537 198.469C322.845 196.806 317.317 197.498 310.756 197.067C307.572 211.134 304 226.572 300.67 242.063C300.239 244.064 300.484 246.631 301.401 248.434C307.518 260.452 304.954 272.421 301.694 284.458C298 298.1 294.319 311.746 290.747 325.421C290.311 327.089 290.105 329.105 290.632 330.68C291.966 334.669 291.727 338.054 287.727 340.083C283.332 342.312 280.49 339.871 278.152 335.912ZM176.507 213.015C180.744 220.341 184.953 227.684 189.243 234.979C190.073 236.389 190.977 237.967 192.269 238.852C195.405 241.001 198.71 240.805 201.124 237.73C202.724 235.692 204.344 233.002 201.13 230.876C194.399 226.424 190.573 220.482 190.811 212.204C190.833 211.436 190.445 210.584 190.046 209.886C186.67 203.978 183.351 198.033 179.802 192.229C177.527 188.509 173.665 187.517 170.432 189.436C167.206 191.351 166.337 195.098 168.464 198.997C170.925 203.51 173.586 207.914 176.507 213.015ZM166.101 246.649C169.03 248.446 172.296 248.535 174.15 245.78C175.493 243.783 176.418 240.064 175.448 238.193C170.562 228.771 165.119 219.626 159.595 210.553C157.611 207.294 154.228 206.573 150.86 208.506C147.485 210.443 146.423 213.737 148.31 217.056C153.879 226.851 159.771 236.462 166.101 246.649ZM341.321 189.996C342.343 193.393 344.564 195.834 348.137 195.184C350.243 194.801 353.222 193.026 353.766 191.251C356.971 180.8 359.745 170.206 362.291 159.571C363.185 155.834 361.046 152.998 357.247 152.228C353.462 151.461 350.615 153.285 349.611 156.972C346.695 167.682 344.01 178.455 341.321 189.996ZM410.419 184.165C412.589 187.021 414.759 189.878 417.175 193.058C425.293 184.928 433.292 177.029 441.151 168.994C444.619 165.447 444.659 161.828 441.663 158.955C438.613 156.03 435.348 156.201 431.671 159.809C424.686 166.663 417.786 173.604 410.946 180.602C410.259 181.305 410.227 182.648 410.419 184.165ZM327.235 183.869C329.506 177.015 331.955 170.213 333.978 163.287C335.113 159.404 333.404 156.378 329.508 155.054C325.924 153.836 322.402 155.988 321.198 160.129C319.671 165.381 318.229 170.667 317.005 175.997C315.358 183.175 319.363 186.596 327.235 183.869ZM130.404 232.631C130.627 235.291 130.183 238.25 131.213 240.55C133.296 245.203 136.122 249.533 138.748 253.933C141.156 257.966 144.924 259.254 148.297 257.364C151.686 255.464 152.555 251.591 150.278 247.418C147.743 242.774 145.092 238.188 142.329 233.676C139.262 228.669 135.793 228.232 130.404 232.631ZM206.464 185.06C202.96 180.588 199.381 179.663 196.094 182.379C192.064 185.71 192.998 190.752 198.553 196.913C202.708 195.579 206.689 194.301 210.913 192.944C209.571 190.526 208.223 188.098 206.464 185.06Z" fill="black"/>
<path d="M382.589 41.4193C380.784 44.0496 379.228 46.4148 377.596 48.7256C375.113 52.2401 371.874 53.2668 368.079 51.0519C364.743 49.1045 364.015 45.1386 366.455 41.4388C371.495 33.7974 376.667 26.2398 381.938 18.7552C384.444 15.195 388.459 14.4021 391.495 16.4824C394.617 18.6223 395.275 22.4192 392.848 26.2157C389.62 31.2638 386.163 36.1654 382.589 41.4193Z" fill="black"/>
<path d="M149.299 96.4233C149.794 89.0208 153.999 86.3342 159.891 89.5396C167.039 93.4283 174.062 97.5575 181.034 101.757C184.543 103.871 185.492 107.204 183.56 110.798C181.702 114.257 178.284 115.204 174.989 113.444C167.23 109.298 159.668 104.775 152.125 100.241C150.949 99.5348 150.29 97.9689 149.299 96.4233Z" fill="black"/>
<path d="M397.158 78.9466C393.945 81.8791 391.047 84.6336 388.029 87.2497C384.291 90.4904 380.628 90.5624 377.856 87.6076C375.099 84.6684 375.399 80.8532 378.921 77.5528C384.506 72.3176 390.167 67.1594 395.897 62.0829C399.542 58.8538 403.407 58.7606 406.11 61.5589C409.052 64.606 408.621 68.3426 404.802 71.985C402.394 74.2815 399.884 76.4702 397.158 78.9466Z" fill="black"/>
<path d="M166.758 41.1331C172.439 46.7817 177.883 52.154 183.248 57.6049C187.015 61.4326 187.419 65.0934 184.575 68.085C181.622 71.1898 177.743 70.793 173.74 66.863C168.634 61.8505 163.594 56.7714 158.515 51.7318C155.638 48.8774 154.079 45.6475 156.892 42.0379C159.544 38.6357 162.92 38.1913 166.758 41.1331Z" fill="black"/>
<path d="M249.985 256.789C248.464 253 249.208 249.75 252.418 248.324C254.476 247.41 258.031 247.456 259.676 248.704C261.314 249.947 262.125 253.29 261.93 255.596C261.795 257.184 259.309 259.806 257.905 259.786C255.296 259.748 252.711 258.117 249.985 256.789Z" fill="black"/>
<path d="M591.869 361.943L591.861 361.932L591.853 361.922C591.661 361.701 591.426 361.376 591.148 360.943C590.869 360.509 590.582 360.044 590.287 359.547C590.009 359.052 589.746 358.557 589.498 358.063C589.31 357.662 589.154 357.308 589.028 357.001C590.075 356.453 590.851 355.908 591.336 355.361L591.336 355.361L591.338 355.358C591.846 354.768 592.125 354.166 592.125 353.555C592.125 353.029 591.997 352.569 591.727 352.191C591.468 351.828 591.124 351.537 590.701 351.317C590.281 351.099 589.793 350.951 589.24 350.87C588.711 350.79 588.16 350.75 587.586 350.75C587.173 350.75 586.738 350.766 586.28 350.797L586.279 350.798C585.848 350.828 585.394 350.867 584.918 350.913C584.812 350.868 584.701 350.844 584.586 350.844C584.336 350.844 584.125 350.95 583.971 351.146C583.812 351.331 583.75 351.576 583.75 351.844C583.75 352.01 583.8 352.221 583.88 352.461C584.012 352.873 584.111 353.437 584.173 354.162C584.235 354.888 584.266 355.678 584.266 356.531C584.266 357.556 584.227 358.581 584.149 359.606C584.072 360.625 583.98 361.511 583.872 362.266C583.851 362.342 583.844 362.426 583.844 362.508C583.844 362.784 583.936 363.03 584.151 363.197L584.151 363.198L584.161 363.205C584.355 363.34 584.568 363.414 584.797 363.414C585.014 363.414 585.214 363.337 585.391 363.201C585.609 363.046 585.731 362.818 585.77 362.546C585.818 362.26 585.865 361.897 585.912 361.461C585.976 361.016 586.023 360.526 586.054 359.991C586.086 359.458 586.109 358.894 586.125 358.299C586.156 357.702 586.172 357.105 586.172 356.508C586.172 355.706 586.14 354.949 586.077 354.238C586.038 353.642 585.97 353.108 585.873 352.638C586.174 352.595 586.455 352.562 586.717 352.538C587.071 352.507 587.399 352.492 587.703 352.492C588.445 352.492 589.039 352.606 589.495 352.82L589.495 352.82L589.504 352.824C589.732 352.921 589.884 353.039 589.98 353.169C590.074 353.297 590.125 353.453 590.125 353.648C590.125 353.731 590.104 353.829 590.053 353.945L590.048 353.956L590.044 353.968C590.013 354.061 589.938 354.186 589.796 354.343C589.66 354.478 589.446 354.636 589.145 354.817L589.145 354.817L589.14 354.82C588.854 355 588.474 355.206 587.995 355.438C587.597 355.621 587.294 355.856 587.148 356.168L587.148 356.168L587.143 356.181C587.044 356.429 586.984 356.658 586.984 356.859C586.984 357.005 587.003 357.146 587.041 357.28L587.047 357.302L587.058 357.323L587.058 357.323L587.058 357.324L587.058 357.324L587.059 357.325L587.059 357.325L587.059 357.326L587.06 357.327L587.06 357.327L587.06 357.328L587.06 357.328L587.061 357.329L587.061 357.329L587.061 357.33L587.061 357.33L587.062 357.331L587.062 357.331L587.062 357.332L587.063 357.333L587.063 357.333L587.063 357.334L587.063 357.334L587.064 357.335L587.064 357.335L587.064 357.336L587.064 357.336L587.065 357.337L587.065 357.337L587.065 357.338L587.066 357.339L587.066 357.339L587.066 357.34L587.066 357.34L587.067 357.341L587.067 357.341L587.067 357.342L587.067 357.342L587.068 357.343L587.068 357.343L587.068 357.344L587.068 357.344L587.069 357.345L587.069 357.345L587.069 357.346L587.07 357.347L587.07 357.347L587.07 357.348L587.07 357.348L587.071 357.349L587.071 357.349L587.071 357.35L587.071 357.35L587.072 357.351L587.072 357.351L587.072 357.352L587.072 357.352L587.073 357.353L587.073 357.353L587.073 357.354L587.074 357.355L587.074 357.355L587.074 357.356L587.074 357.356L587.075 357.357L587.075 357.357L587.075 357.358L587.075 357.358L587.076 357.359L587.076 357.359L587.076 357.36L587.076 357.36L587.077 357.361L587.077 357.361L587.077 357.362L587.077 357.362L587.078 357.363L587.078 357.363L587.078 357.364L587.079 357.364L587.079 357.365L587.079 357.366L587.079 357.366L587.08 357.367L587.08 357.367L587.08 357.368L587.08 357.368L587.081 357.369L587.081 357.369L587.081 357.37L587.081 357.37L587.082 357.371L587.082 357.371L587.082 357.372L587.082 357.372L587.083 357.373L587.083 357.373L587.083 357.374L587.083 357.374L587.084 357.375L587.084 357.375L587.084 357.376L587.084 357.376L587.085 357.377L587.085 357.377L587.085 357.378L587.085 357.378L587.086 357.379L587.086 357.379L587.086 357.38L587.087 357.38L587.087 357.381L587.087 357.382L587.087 357.382L587.088 357.383L587.088 357.383L587.088 357.384L587.088 357.384L587.089 357.385L587.089 357.385L587.089 357.386L587.089 357.386L587.09 357.387L587.09 357.387L587.09 357.388L587.09 357.388L587.091 357.389L587.091 357.389L587.091 357.39L587.091 357.39L587.092 357.391L587.092 357.391L587.092 357.392L587.092 357.392L587.093 357.393L587.093 357.393L587.093 357.394L587.093 357.394L587.094 357.395L587.094 357.395L587.094 357.396L587.094 357.396L587.095 357.397L587.095 357.397L587.095 357.398L587.095 357.398L587.096 357.399L587.096 357.399L587.096 357.4L587.096 357.4L587.097 357.401L587.097 357.401L587.097 357.402L587.097 357.402L587.098 357.403L587.098 357.403L587.098 357.404L587.098 357.404L587.099 357.405L587.099 357.405L587.099 357.406L587.099 357.406L587.1 357.407L587.1 357.407L587.1 357.408L587.1 357.408L587.101 357.409L587.101 357.409L587.101 357.409L587.101 357.41L587.102 357.41L587.102 357.411L587.102 357.411L587.102 357.412L587.102 357.412L587.103 357.413L587.103 357.413L587.103 357.414L587.103 357.414L587.104 357.415L587.104 357.415L587.104 357.416L587.104 357.416L587.105 357.417L587.105 357.417L587.105 357.418L587.105 357.418L587.106 357.419L587.106 357.419L587.106 357.42L587.106 357.42L587.107 357.421L587.107 357.421L587.107 357.422L587.107 357.422L587.108 357.423L587.108 357.423L587.108 357.424L587.108 357.424L587.109 357.424L587.109 357.425L587.109 357.425L587.109 357.426L587.109 357.426L587.11 357.427L587.11 357.427L587.11 357.428L587.11 357.428L587.111 357.429L587.111 357.429L587.111 357.43L587.111 357.43L587.112 357.431L587.112 357.431L587.112 357.432L587.112 357.432L587.113 357.433L587.113 357.433L587.113 357.434L587.113 357.434L587.114 357.434L587.114 357.435L587.114 357.435L587.114 357.436L587.114 357.436L587.115 357.437L587.115 357.437L587.115 357.438L587.115 357.438L587.116 357.439L587.116 357.439L587.116 357.44L587.116 357.44L587.117 357.441L587.117 357.441L587.117 357.441L587.117 357.442L587.117 357.442L587.118 357.443L587.118 357.443L587.118 357.444L587.118 357.444L587.119 357.445L587.119 357.445L587.119 357.446L587.119 357.446L587.12 357.447L587.12 357.447L587.12 357.448L587.12 357.448L587.12 357.448L587.121 357.449L587.121 357.449L587.121 357.45L587.121 357.45L587.122 357.451L587.122 357.451L587.122 357.452L587.122 357.452L587.123 357.453L587.123 357.453L587.123 357.453L587.123 357.454L587.123 357.454L587.124 357.455L587.124 357.455L587.124 357.456L587.124 357.456L587.125 357.457L587.125 357.457L587.125 357.458L587.125 357.458L587.126 357.458L587.126 357.459L587.126 357.459L587.126 357.46L587.126 357.46L587.127 357.461L587.127 357.461L587.127 357.462L587.127 357.462L587.128 357.463L587.128 357.463L587.128 357.463L587.128 357.464L587.128 357.464L587.129 357.465L587.129 357.465L587.129 357.466L587.129 357.466L587.13 357.467L587.13 357.467L587.13 357.467L587.13 357.468L587.13 357.468L587.131 357.469L587.131 357.469L587.131 357.47L587.131 357.47L587.132 357.471L587.132 357.471L587.132 357.471L587.132 357.472L587.132 357.472L587.133 357.473L587.133 357.473L587.133 357.474L587.133 357.474L587.134 357.475L587.134 357.475L587.134 357.475L587.134 357.476L587.134 357.476L587.135 357.477L587.135 357.477L587.135 357.478L587.135 357.478L587.136 357.478L587.136 357.479L587.136 357.479L587.136 357.48L587.136 357.48L587.137 357.481L587.137 357.481L587.137 357.482L587.137 357.482L587.137 357.482L587.138 357.483L587.138 357.483L587.138 357.484L587.138 357.484L587.139 357.485L587.139 357.485L587.139 357.485L587.139 357.486L587.139 357.486L587.14 357.487L587.14 357.487L587.14 357.488L587.14 357.488L587.14 357.488L587.141 357.489L587.141 357.489L587.141 357.49L587.141 357.49L587.142 357.491L587.142 357.491L587.142 357.491L587.142 357.492L587.142 357.492L587.143 357.493L587.143 357.493L587.143 357.494L587.143 357.494L587.143 357.494L587.144 357.495L587.144 357.495L587.144 357.496L587.144 357.496L587.145 357.496L587.145 357.497L587.145 357.497L587.145 357.498L587.145 357.498L587.146 357.499L587.146 357.499L587.146 357.499L587.146 357.5L587.146 357.5L587.147 357.501L587.147 357.501L587.147 357.502L587.147 357.502L587.147 357.502L587.148 357.503L587.148 357.503L587.148 357.504L587.148 357.504L587.148 357.504L587.149 357.505L587.149 357.505L587.149 357.506L587.149 357.506L587.15 357.506L587.15 357.507L587.15 357.507L587.15 357.508L587.15 357.508L587.151 357.509L587.151 357.509L587.151 357.509L587.151 357.51L587.151 357.51L587.152 357.511L587.152 357.511L587.152 357.511L587.152 357.512L587.152 357.512L587.153 357.513L587.153 357.513L587.153 357.513L587.153 357.514L587.153 357.514L587.154 357.515L587.154 357.515L587.154 357.515L587.154 357.516L587.154 357.516L587.155 357.517L587.155 357.517L587.155 357.517L587.155 357.518L587.155 357.518L587.156 357.519L587.156 357.519L587.156 357.52L587.156 357.52L587.156 357.52L587.157 357.521L587.157 357.521L587.157 357.522L587.157 357.522L587.157 357.522L587.158 357.523L587.158 357.523L587.158 357.524L587.158 357.524L587.158 357.524L587.159 357.525L587.159 357.525L587.159 357.525L587.159 357.526L587.159 357.526L587.16 357.527L587.16 357.527L587.16 357.527L587.16 357.528L587.16 357.528L587.161 357.529L587.161 357.529L587.161 357.529L587.161 357.53L587.161 357.53L587.162 357.531L587.162 357.531L587.162 357.531L587.162 357.532L587.162 357.532L587.163 357.533L587.163 357.533L587.163 357.533L587.163 357.534L587.163 357.534L587.164 357.534L587.164 357.535L587.164 357.535L587.164 357.536L587.164 357.536L587.164 357.536L587.165 357.537L587.165 357.537L587.165 357.538L587.165 357.538L587.165 357.538L587.166 357.539L587.166 357.539L587.166 357.54L587.166 357.54L587.166 357.54L587.167 357.541L587.167 357.541L587.167 357.541L587.167 357.542L587.167 357.542L587.168 357.543L587.168 357.543L587.168 357.543L587.168 357.544L587.168 357.544L587.169 357.544L587.169 357.545L587.169 357.545L587.169 357.545C587.36 358.052 587.62 358.642 587.947 359.313L587.947 359.313L587.948 359.315C588.279 359.976 588.625 360.614 588.988 361.229C589.351 361.844 589.701 362.369 590.037 362.802C590.208 363.021 590.373 363.198 590.533 363.321C590.69 363.442 590.866 363.531 591.055 363.531C591.322 363.531 591.561 363.436 591.761 363.256C591.968 363.07 592.078 362.831 592.078 362.555C592.078 362.337 592.001 362.131 591.869 361.943Z" fill="black" stroke="black" stroke-width="0.5"/>
<path d="M598.5 357.5C598.5 363.575 593.575 368.5 587.5 368.5C581.425 368.5 576.5 363.575 576.5 357.5C576.5 351.425 581.425 346.5 587.5 346.5C593.575 346.5 598.5 351.425 598.5 357.5Z" stroke="black" stroke-width="3"/>
</svg>
