<svg width="200" height="200" viewBox="0 0 200 200" fill="none" xmlns="http://www.w3.org/2000/svg">
<path d="M187.5 99.9995C187.5 91.3569 181.445 84.1792 173.438 82.0308C174.341 79.8335 175 77.5142 175 74.9995C175 64.7212 166.528 56.2495 156.25 56.2495L89.0625 56.2495L94.5312 50.7808C101.807 43.5054 101.807 31.4937 94.5312 24.2183C87.2559 16.9429 75.2441 16.9429 67.9688 24.2183L25.5859 66.6011C18.2617 73.9497 12.5 84.106 12.5 96.0933V125C12.5 149.096 32.1533 168.75 56.25 168.75H131.25C141.528 168.75 150 160.278 150 150C150 147.802 149.536 145.727 148.828 143.75H156.25C166.528 143.75 175 135.278 175 125C175 122.485 174.341 120.166 173.438 117.968C181.445 115.82 187.5 108.642 187.5 99.9995ZM175 99.9995C175 103.54 172.29 106.25 168.75 106.25H106.25V118.75H156.25C159.79 118.75 162.5 121.459 162.5 125C162.5 128.54 159.79 131.25 156.25 131.25H106.25L106.25 143.75H131.25C134.79 143.75 137.5 146.459 137.5 150C137.5 153.54 134.79 156.25 131.25 156.25H56.25C38.916 156.25 25 142.333 25 125V96.0933C25 88.1343 28.8818 81.2983 34.5703 75.5854L76.7578 33.0073C79.248 30.5171 83.2519 30.5171 85.7422 33.0073C88.2324 35.4976 88.2324 39.5015 85.7422 41.9917L69.5312 58.0073L58.7891 68.7495H156.25C159.79 68.7495 162.5 71.4595 162.5 74.9995C162.5 78.5395 159.79 81.2495 156.25 81.2495H106.25V93.7495H168.75C172.29 93.7495 175 96.4595 175 99.9995Z" fill="white"/>
</svg>
