<svg width="200" height="200" viewBox="0 0 200 200" fill="none" xmlns="http://www.w3.org/2000/svg">
<path d="M162.5 93.7499C162.5 87.1093 158.984 81.2743 153.711 77.9296C155.273 75.1952 156.25 72.0946 156.25 68.7499C156.25 58.4716 147.778 49.9999 137.5 49.9999H114.648L97.8516 36.9139C87.5244 28.9305 72.7051 29.4677 62.8906 38.0858L46.0938 52.9296C36.6455 61.2304 31.25 73.1688 31.25 85.7421V118.75C31.25 142.847 50.9033 162.5 75 162.5H131.25C141.528 162.5 150 154.028 150 143.75C150 140.405 149.023 137.305 147.461 134.57C152.734 131.225 156.25 125.391 156.25 118.75C156.25 115.405 155.273 112.305 153.711 109.57C158.984 106.225 162.5 100.391 162.5 93.7499ZM150 93.7499C150 97.2899 147.29 99.9999 143.75 99.9999H125V112.5H137.5C141.04 112.5 143.75 115.21 143.75 118.75C143.75 122.29 141.04 125 137.5 125H125V137.5H131.25C134.79 137.5 137.5 140.21 137.5 143.75C137.5 147.29 134.79 150 131.25 150H75C57.666 150 43.75 136.084 43.75 118.75V85.7421C43.75 76.7577 47.5342 68.2372 54.2969 62.3046L71.2891 47.4608C76.6602 42.7489 84.375 42.5048 90.0391 46.8749L94.1406 49.9999H87.5V62.4999H137.5C141.04 62.4999 143.75 65.2098 143.75 68.7499C143.75 72.2899 141.04 74.9999 137.5 74.9999H125V87.4999H143.75C147.29 87.4999 150 90.2098 150 93.7499Z" fill="white"/>
</svg>
