<svg width="200" height="200" viewBox="0 0 200 200" fill="none" xmlns="http://www.w3.org/2000/svg">
<path d="M71.2891 43.5531C66.1133 43.4554 61.8164 44.5297 59.1797 45.3109C59.1064 45.3109 59.0576 45.3109 58.9844 45.3109L43.3594 50.1937C25.0244 55.8334 12.5 72.8256 12.5 91.9906V124.998C12.5 149.095 32.1533 168.748 56.25 168.748H118.164C125.781 168.919 133.154 164.452 136.133 157.03C138.013 152.318 137.744 147.362 135.938 142.967C139.771 140.941 143.018 137.669 144.727 133.397C146.68 128.49 146.362 123.265 144.336 118.748H168.75C179.028 118.748 187.5 110.277 187.5 99.9984C187.5 89.7201 179.028 81.2484 168.75 81.2484H159.18L161.719 80.4672C171.558 77.4886 177.197 66.8685 174.219 57.0297C171.24 47.1908 160.62 41.5511 150.781 44.5297L98.0469 60.7406C97.583 59.5687 97.0459 58.2992 96.2891 57.0297C93.1641 51.805 86.8408 45.8968 76.7578 44.139C74.8779 43.8216 73.0225 43.5775 71.2891 43.5531ZM157.031 56.2484C159.473 56.517 161.548 58.2015 162.305 60.7406C163.33 64.1097 161.377 67.5277 158.008 68.5531L115.234 81.4437L117.383 88.475V93.7484H168.75C172.29 93.7484 175 96.4584 175 99.9984C175 103.538 172.29 106.248 168.75 106.248H127.539L111.133 99.8031C108.765 98.8509 106.323 98.3871 103.906 98.4359L100.586 72.85L154.492 56.4437C155.347 56.1752 156.226 56.1507 157.031 56.2484ZM71.0938 56.4437C72.29 56.4437 73.5352 56.4437 74.6094 56.639C81.3232 57.8109 83.9111 60.7406 85.5469 63.475C87.1826 66.2093 87.3047 68.1625 87.3047 68.1625C87.3047 68.2845 87.3047 68.431 87.3047 68.5531L92.5781 108.787C92.627 108.983 92.7002 109.178 92.7734 109.373C93.5547 112.669 91.5771 115.819 88.2812 116.6C86.2549 117.088 85.2295 116.82 84.1797 116.209C83.1299 115.599 81.8359 114.305 80.8594 111.522L73.0469 81.2484C72.5586 79.3929 71.2402 77.8793 69.5068 77.1224C67.749 76.3656 65.7471 76.4388 64.0625 77.3422L53.7109 83.0062C50.6836 84.6664 49.585 88.475 51.2695 91.5023C52.9297 94.5297 56.7383 95.6283 59.7656 93.9437L62.8906 92.1859L68.9453 115.233C68.9941 115.428 69.0674 115.623 69.1406 115.819C70.8252 120.653 73.7061 124.535 77.7344 126.952C81.0303 128.929 84.8633 129.686 88.6719 129.295C86.6943 131.126 85.0586 133.47 83.9844 136.131C81.1279 143.285 82.9346 151.146 88.0859 156.248H56.25C38.916 156.248 25 142.332 25 124.998V91.9906C25 78.2455 33.9355 66.1605 47.0703 62.1078L62.6953 57.4203C63.9648 57.0297 67.5293 56.4437 71.0938 56.4437ZM105.078 111.131C105.542 111.204 105.981 111.131 106.445 111.327L129.688 120.702C132.959 122.02 134.521 125.438 133.203 128.709C131.885 131.981 128.271 133.543 125 132.225L101.758 123.045C101.416 122.923 101.27 122.63 100.977 122.459C103.442 119.286 105.029 115.282 105.078 111.131ZM101.172 136.912C102.002 136.912 102.881 136.986 103.711 137.303L112.109 140.623L120.312 143.944L121.094 144.139C124.365 145.457 125.928 149.071 124.609 152.342C123.657 154.735 121.533 156.126 119.141 156.248C119.067 156.248 119.019 156.248 118.945 156.248C118.115 156.273 117.236 156.175 116.406 155.858L99.0234 148.827C95.752 147.508 94.1895 143.895 95.5078 140.623C96.167 138.988 97.3633 137.938 98.8281 137.303C99.5605 136.986 100.342 136.912 101.172 136.912Z" fill="white"/>
</svg>
